<svg xmlns="http://www.w3.org/2000/svg" width="554" height="614"><defs><clipPath id="a"><path data-name="Rectangle 5134" transform="translate(749 298.836)" fill="#fff" stroke="#707070" d="M0 0h554v614H0z"/></clipPath></defs><g transform="translate(-749 -298.836)" clip-path="url(#a)"><path data-name="Top Nav Decore" d="M1226.906 150.421c-52.718-3.106-102.99-31.189-150.9-62.107S980.512 23.239 929.097 6.898c-33.08-10.532-70.972-12.018-97.612 17.418-25.666 28.348-33.976 77.085-38.46 122.454-3.34 34.161-5.3 69.938 3.912 101.951 6.358 22.144 17.674 40.773 25.588 62.107 27.3 73.853 7.985 164.991-21.6 237.087-13.852 33.89-29.9 66.16-40.659 102.208s-15.641 77.368-6.274 114.084c9.288 36.453 31.369 63.727 55.325 83.036 48.653 39.154 105.924 50.227 161.818 56.572 123.686 14.042 248.1 7.954 372.117 1.891 45.873-2.3 91.989-4.591 137.13-16.338 25.09-6.482 51.007-16.876 69.177-41.854 23.14-31.728 28.843-85.6 13.363-125.429-25.991-66.832-97.775-83.441-115.945-155.132-10.021-39.425.244-83.441 14.836-120.028 31.125-78.578 83.343-147.439 86.125-237.225 1.874-61.7-23.223-123.4-62.005-152.565-40.662-30.528-97.128-26.742-127.108 23.872-31.048 51.988-85.4 72.108-131.919 69.414z" fill="#ef16b4" opacity=".1"/></g></svg>